# xmcd
#
# Track frame offsets:
#  183
#  16710
#  35745
#  53415
#  69510
#  92318
#  109523
#  122773
#  145090
#  164595
#  169925
#  191058
#
# Disc length: 2789 seconds
#
# Revision: 0
# Processed by: cddbd v1.5.1PL2 Copyright (c) Steve Scherf et al.
# Submitted via: Collectorz.com_Music_Collector 6.9
#
DISCID=970ae30c
DTITLE=Coldsteel - Freakboy
DYEAR=1990
DGENRE=Heavy Metal
TTITLE0=Truth Or Dare
TTITLE1=The Worst Is Yet To Come
TTITLE2=Bracing The Fall
TTITLE3=Perfect Peace
TTITLE4=Fools Paradise
TTITLE5=Freakboy
TTITLE6=New World
TTITLE7=What Are You Looking At ?
TTITLE8=Never Now, Never Will
TTITLE9=DSM
TTITLE10=Hazardous (To Your Health)
TTITLE11=Crackdown
EXTD=
EXTT0=
EXTT1=
EXTT2=
EXTT3=
EXTT4=
EXTT5=
EXTT6=
EXTT7=
EXTT8=
EXTT9=
EXTT10=
EXTT11=
PLAYORDER=
